<!-- icon666.com - MILLIONS vector ICONS FREE --><svg enable-background="new 0 0 512 512" viewBox="0 0 512 512" xmlns="http://www.w3.org/2000/svg"><g id="_x34_5_x2C__Barometer_x2C__climate_x2C__instrument_x2C__pressure_x2C__weather"><g id="XMLID_1075_"><path id="XMLID_1112_" d="m256.027 26.027c127.03 0 230 102.97 230 230s-102.97 230-230 230-230-102.97-230-230 102.97-230 230-230z" fill="#fff"></path><path id="XMLID_772_" d="m256.027 176.027 32 136h-64z" fill="#a4c2f7"></path><path id="XMLID_771_" d="m296.027 336.027c0 22.09-17.91 40-40 40s-40-17.91-40-40c0-22.043 17.87-40 40-40 22.131 0 40 17.958 40 40z" fill="#a4c2f7"></path><g fill="#418cfe"><path id="XMLID_1102_" d="m256.027 496.027c-64.108 0-124.378-24.964-169.707-70.293-93.789-93.787-93.802-245.613 0-339.414 93.788-93.789 245.613-93.803 339.414 0 45.329 45.329 70.293 105.599 70.293 169.707 0 132.645-107.337 240-240 240zm0-460c-121.309 0-220 98.691-220 220s98.691 220 220 220 220-98.691 220-220-98.691-220-220-220z"></path><path id="XMLID_768_" d="m376.237 390.379c-3.906-3.904-3.906-10.236-.001-14.142 66.274-66.284 66.274-174.135 0-240.419-66.283-66.273-174.134-66.274-240.418.001-66.273 66.283-66.273 174.134.001 240.418 3.905 3.905 3.904 10.237-.001 14.142-3.904 3.905-10.236 3.905-14.142-.001-74.071-74.081-74.071-194.62 0-268.701 74.083-74.072 194.624-74.07 268.702-.001 74.072 74.083 74.072 194.621.001 268.702-3.904 3.905-10.238 3.907-14.142.001z"></path><path id="XMLID_767_" d="m256.027 146.027c-5.523 0-10-4.477-10-10v-20c0-5.523 4.477-10 10-10s10 4.477 10 10v20c0 5.523-4.477 10-10 10z"></path><path id="XMLID_766_" d="m187.367 157.107-10-17.32c-2.762-4.783-1.123-10.899 3.66-13.66 4.782-2.763 10.898-1.124 13.66 3.66l10 17.32c2.762 4.783 1.123 10.899-3.66 13.66-4.753 2.745-10.882 1.152-13.66-3.66z"></path><path id="XMLID_765_" d="m147.107 204.687-17.32-10c-4.783-2.761-6.422-8.877-3.66-13.66s8.879-6.42 13.66-3.66l17.32 10c4.783 2.761 6.422 8.877 3.66 13.66-2.77 4.797-8.891 6.413-13.66 3.66z"></path><path id="XMLID_764_" d="m136.027 266.027h-20c-5.523 0-10-4.477-10-10s4.477-10 10-10h20c5.523 0 10 4.477 10 10s-4.477 10-10 10z"></path><path id="XMLID_763_" d="m126.127 331.027c-2.762-4.783-1.123-10.898 3.66-13.66l17.32-10c4.783-2.762 10.899-1.123 13.66 3.66 2.762 4.783 1.123 10.898-3.66 13.66l-17.32 10c-4.764 2.751-10.888 1.143-13.66-3.66z"></path><path id="XMLID_762_" d="m377.257 336.029c-1.696 0-3.415-.433-4.99-1.342l-17.32-10c-4.783-2.762-6.422-8.877-3.66-13.66 2.762-4.782 8.876-6.422 13.66-3.66l17.32 10c4.783 2.762 6.422 8.877 3.66 13.66-1.852 3.208-5.214 5.002-8.67 5.002z"></path><path id="XMLID_761_" d="m396.027 266.027h-20c-5.522 0-10-4.477-10-10s4.478-10 10-10h20c5.522 0 10 4.477 10 10s-4.478 10-10 10z"></path><path id="XMLID_760_" d="m359.957 206.028c-3.457 0-6.817-1.793-8.67-5.001-2.762-4.783-1.123-10.899 3.66-13.66l17.32-10c4.784-2.761 10.898-1.123 13.66 3.66s1.123 10.899-3.66 13.66l-17.32 10c-1.574.909-3.294 1.341-4.99 1.341z"></path><path id="XMLID_759_" d="m311.027 160.767c-4.783-2.761-6.422-8.877-3.66-13.66l10-17.32c2.762-4.782 8.876-6.422 13.66-3.66 4.783 2.761 6.422 8.877 3.66 13.66l-10 17.32c-2.77 4.798-8.89 6.413-13.66 3.66z"></path><path id="XMLID_758_" d="m288.018 322.029c-4.535 0-8.642-3.105-9.726-7.712l-22.266-94.629-22.266 94.629c-1.266 5.376-6.649 8.704-12.025 7.444-5.376-1.266-8.708-6.648-7.444-12.024l32-136c1.063-4.517 5.094-7.709 9.734-7.709 4.641 0 8.671 3.192 9.734 7.709l32 136c1.265 5.376-2.068 10.759-7.444 12.024-.768.181-1.538.268-2.297.268z"></path><path id="XMLID_1078_" d="m256.027 386.027c-27.57 0-50-22.43-50-50 0-10.907 3.458-21.281 10.001-30.002 9.546-12.71 24.124-19.998 39.999-19.998s30.453 7.288 39.996 19.995c.001.001.002.002.003.004 6.543 8.721 10.001 19.095 10.001 30.001 0 27.57-22.43 50-50 50zm0-80c-9.525 0-18.274 4.376-24.004 12.005-3.922 5.227-5.996 11.451-5.996 17.995 0 16.542 13.458 30 30 30s30-13.458 30-30c0-6.544-2.074-12.768-5.999-17.999-5.731-7.627-14.478-12.001-24.001-12.001z"></path></g></g></g></svg>